<svg id="visual" viewBox="0 0 960 540" width="960" height="540" xmlns="http://www.w3.org/2000/svg" xmlns:xlink="http://www.w3.org/1999/xlink" version="1.1"><g stroke-width="1" stroke-linejoin="bevel"><path d="M499 310L487 194L462 317Z" fill="#15384f" stroke="#15384f"></path><path d="M487 194L420 305L462 317Z" fill="#081a28" stroke="#081a28"></path><path d="M499 310L569 267L487 194Z" fill="#0c2435" stroke="#0c2435"></path><path d="M462 317L548 336L499 310Z" fill="#0c2435" stroke="#0c2435"></path><path d="M499 310L548 336L569 267Z" fill="#00101c" stroke="#00101c"></path><path d="M487 194L387 169L420 305Z" fill="#1d4e6b" stroke="#1d4e6b"></path><path d="M328 234L363 336L420 305Z" fill="#081a28" stroke="#081a28"></path><path d="M420 305L363 336L462 317Z" fill="#297ea6" stroke="#297ea6"></path><path d="M462 317L572 404L548 336Z" fill="#081a28" stroke="#081a28"></path><path d="M487 194L400 131L387 169Z" fill="#0c2435" stroke="#0c2435"></path><path d="M292 169L328 234L387 169Z" fill="#1d4e6b" stroke="#1d4e6b"></path><path d="M387 169L328 234L420 305Z" fill="#205a7a" stroke="#205a7a"></path><path d="M569 267L600 151L487 194Z" fill="#277297" stroke="#277297"></path><path d="M487 194L491 41L400 131Z" fill="#277297" stroke="#277297"></path><path d="M624 360L640 254L569 267Z" fill="#205a7a" stroke="#205a7a"></path><path d="M569 267L640 254L600 151Z" fill="#205a7a" stroke="#205a7a"></path><path d="M435 484L572 404L462 317Z" fill="#297ea6" stroke="#297ea6"></path><path d="M548 336L624 360L569 267Z" fill="#112e42" stroke="#112e42"></path><path d="M572 404L624 360L548 336Z" fill="#15384f" stroke="#15384f"></path><path d="M400 131L314 137L387 169Z" fill="#205a7a" stroke="#205a7a"></path><path d="M314 137L292 169L387 169Z" fill="#00101c" stroke="#00101c"></path><path d="M238 343L305 425L363 336Z" fill="#15384f" stroke="#15384f"></path><path d="M600 151L542 60L487 194Z" fill="#112e42" stroke="#112e42"></path><path d="M400 131L379 0L314 137Z" fill="#246688" stroke="#246688"></path><path d="M542 60L491 41L487 194Z" fill="#0c2435" stroke="#0c2435"></path><path d="M363 336L435 484L462 317Z" fill="#246688" stroke="#246688"></path><path d="M710 203L629 80L600 151Z" fill="#0c2435" stroke="#0c2435"></path><path d="M600 151L629 80L542 60Z" fill="#00101c" stroke="#00101c"></path><path d="M526 0L480 0L491 41Z" fill="#1d4e6b" stroke="#1d4e6b"></path><path d="M363 336L347 480L435 484Z" fill="#205a7a" stroke="#205a7a"></path><path d="M238 343L363 336L328 234Z" fill="#112e42" stroke="#112e42"></path><path d="M735 351L710 203L640 254Z" fill="#081a28" stroke="#081a28"></path><path d="M640 254L710 203L600 151Z" fill="#15384f" stroke="#15384f"></path><path d="M174 317L238 343L328 234Z" fill="#246688" stroke="#246688"></path><path d="M526 0L491 41L542 60Z" fill="#1d4e6b" stroke="#1d4e6b"></path><path d="M491 41L379 0L400 131Z" fill="#112e42" stroke="#112e42"></path><path d="M314 137L234 153L292 169Z" fill="#277297" stroke="#277297"></path><path d="M292 169L234 153L328 234Z" fill="#205a7a" stroke="#205a7a"></path><path d="M191 48L234 153L314 137Z" fill="#277297" stroke="#277297"></path><path d="M375 540L347 480L280 540Z" fill="#19435d" stroke="#19435d"></path><path d="M305 425L347 480L363 336Z" fill="#205a7a" stroke="#205a7a"></path><path d="M641 0L526 0L542 60Z" fill="#205a7a" stroke="#205a7a"></path><path d="M480 0L379 0L491 41Z" fill="#205a7a" stroke="#205a7a"></path><path d="M718 399L735 351L624 360Z" fill="#277297" stroke="#277297"></path><path d="M624 360L735 351L640 254Z" fill="#277297" stroke="#277297"></path><path d="M718 399L624 360L572 404Z" fill="#00101c" stroke="#00101c"></path><path d="M719 488L718 399L572 404Z" fill="#081a28" stroke="#081a28"></path><path d="M375 540L526 540L435 484Z" fill="#297ea6" stroke="#297ea6"></path><path d="M435 484L526 540L572 404Z" fill="#1d4e6b" stroke="#1d4e6b"></path><path d="M735 351L763 220L710 203Z" fill="#112e42" stroke="#112e42"></path><path d="M710 203L783 61L629 80Z" fill="#205a7a" stroke="#205a7a"></path><path d="M280 540L347 480L305 425Z" fill="#1d4e6b" stroke="#1d4e6b"></path><path d="M347 480L375 540L435 484Z" fill="#297ea6" stroke="#297ea6"></path><path d="M234 153L174 317L328 234Z" fill="#081a28" stroke="#081a28"></path><path d="M238 343L194 483L305 425Z" fill="#15384f" stroke="#15384f"></path><path d="M735 351L773 223L763 220Z" fill="#081a28" stroke="#081a28"></path><path d="M783 61L641 0L629 80Z" fill="#081a28" stroke="#081a28"></path><path d="M783 61L710 203L763 220Z" fill="#246688" stroke="#246688"></path><path d="M629 80L641 0L542 60Z" fill="#1d4e6b" stroke="#1d4e6b"></path><path d="M526 540L595 540L572 404Z" fill="#19435d" stroke="#19435d"></path><path d="M112 281L145 339L174 317Z" fill="#277297" stroke="#277297"></path><path d="M174 317L145 339L238 343Z" fill="#19435d" stroke="#19435d"></path><path d="M379 0L247 0L314 137Z" fill="#297ea6" stroke="#297ea6"></path><path d="M234 153L112 281L174 317Z" fill="#112e42" stroke="#112e42"></path><path d="M913 345L909 317L735 351Z" fill="#15384f" stroke="#15384f"></path><path d="M909 317L836 213L773 223Z" fill="#1d4e6b" stroke="#1d4e6b"></path><path d="M666 540L719 488L572 404Z" fill="#297ea6" stroke="#297ea6"></path><path d="M194 483L280 540L305 425Z" fill="#19435d" stroke="#19435d"></path><path d="M247 0L191 48L314 137Z" fill="#1d4e6b" stroke="#1d4e6b"></path><path d="M595 540L666 540L572 404Z" fill="#081a28" stroke="#081a28"></path><path d="M247 0L224 0L191 48Z" fill="#15384f" stroke="#15384f"></path><path d="M129 382L194 483L238 343Z" fill="#15384f" stroke="#15384f"></path><path d="M114 132L112 281L234 153Z" fill="#15384f" stroke="#15384f"></path><path d="M145 339L129 382L238 343Z" fill="#081a28" stroke="#081a28"></path><path d="M112 281L129 382L145 339Z" fill="#277297" stroke="#277297"></path><path d="M773 223L783 61L763 220Z" fill="#15384f" stroke="#15384f"></path><path d="M909 317L773 223L735 351Z" fill="#205a7a" stroke="#205a7a"></path><path d="M773 223L836 213L783 61Z" fill="#1d4e6b" stroke="#1d4e6b"></path><path d="M194 483L231 540L280 540Z" fill="#205a7a" stroke="#205a7a"></path><path d="M114 130L234 153L191 48Z" fill="#1d4e6b" stroke="#1d4e6b"></path><path d="M114 130L114 132L234 153Z" fill="#081a28" stroke="#081a28"></path><path d="M94 0L114 130L191 48Z" fill="#297ea6" stroke="#297ea6"></path><path d="M0 209L0 294L112 281Z" fill="#0c2435" stroke="#0c2435"></path><path d="M852 0L777 0L783 61Z" fill="#15384f" stroke="#15384f"></path><path d="M783 61L777 0L641 0Z" fill="#15384f" stroke="#15384f"></path><path d="M0 413L134 480L129 382Z" fill="#15384f" stroke="#15384f"></path><path d="M129 382L134 480L194 483Z" fill="#0c2435" stroke="#0c2435"></path><path d="M194 483L134 480L231 540Z" fill="#1d4e6b" stroke="#1d4e6b"></path><path d="M666 540L808 540L719 488Z" fill="#00101c" stroke="#00101c"></path><path d="M719 488L881 482L718 399Z" fill="#246688" stroke="#246688"></path><path d="M913 345L735 351L881 482Z" fill="#277297" stroke="#277297"></path><path d="M836 213L876 54L783 61Z" fill="#00101c" stroke="#00101c"></path><path d="M881 482L735 351L718 399Z" fill="#277297" stroke="#277297"></path><path d="M960 158L876 54L836 213Z" fill="#081a28" stroke="#081a28"></path><path d="M960 271L836 213L909 317Z" fill="#15384f" stroke="#15384f"></path><path d="M224 0L94 0L191 48Z" fill="#081a28" stroke="#081a28"></path><path d="M0 209L112 281L114 132Z" fill="#081a28" stroke="#081a28"></path><path d="M876 54L852 0L783 61Z" fill="#19435d" stroke="#19435d"></path><path d="M808 540L881 482L719 488Z" fill="#246688" stroke="#246688"></path><path d="M0 209L114 132L0 104Z" fill="#15384f" stroke="#15384f"></path><path d="M112 281L0 385L129 382Z" fill="#15384f" stroke="#15384f"></path><path d="M0 104L114 132L114 130Z" fill="#246688" stroke="#246688"></path><path d="M0 294L0 385L112 281Z" fill="#0c2435" stroke="#0c2435"></path><path d="M0 413L70 540L134 480Z" fill="#277297" stroke="#277297"></path><path d="M134 480L70 540L231 540Z" fill="#1d4e6b" stroke="#1d4e6b"></path><path d="M960 408L960 271L913 345Z" fill="#15384f" stroke="#15384f"></path><path d="M913 345L960 271L909 317Z" fill="#081a28" stroke="#081a28"></path><path d="M94 0L0 104L114 130Z" fill="#112e42" stroke="#112e42"></path><path d="M0 385L0 413L129 382Z" fill="#19435d" stroke="#19435d"></path><path d="M960 271L960 158L836 213Z" fill="#297ea6" stroke="#297ea6"></path><path d="M876 54L960 0L852 0Z" fill="#277297" stroke="#277297"></path><path d="M881 482L960 408L913 345Z" fill="#205a7a" stroke="#205a7a"></path><path d="M808 540L903 540L881 482Z" fill="#297ea6" stroke="#297ea6"></path><path d="M881 482L960 427L960 408Z" fill="#15384f" stroke="#15384f"></path><path d="M960 540L960 427L881 482Z" fill="#205a7a" stroke="#205a7a"></path><path d="M960 158L960 78L876 54Z" fill="#15384f" stroke="#15384f"></path><path d="M94 0L0 0L0 104Z" fill="#205a7a" stroke="#205a7a"></path><path d="M0 413L0 540L70 540Z" fill="#246688" stroke="#246688"></path><path d="M960 78L960 0L876 54Z" fill="#0c2435" stroke="#0c2435"></path><path d="M903 540L960 540L881 482Z" fill="#081a28" stroke="#081a28"></path></g></svg>