<svg class="border shadow-md dark:border-slate-700" viewBox="0 0 928.4 742.72" xmlns="http://www.w3.org/2000/svg" preserveAspectRatio="none" style="width: 928.4px; height: 742.72px;"><rect class="bg" id="bg" x="0" y="0" width="928.4" height="742.72" fill="#ffffff"/><path d="M 0 -74.272 L 0 -74.27&#10;                L 108.00 -2.27&#10;                L 185.68 -74.27 L 185.68 -74.27&#10;                L 315.68 -37.14&#10;                L 371.36 -74.27 L 371.36 -74.27&#10;                L 433.25 -37.14&#10;                L 557.04 -74.27 L 557.04 -74.27&#10;                L 637.04 -22.27&#10;                L 742.72 -74.27 L 742.72 -74.27&#10;                L 829.72 -37.14&#10;                L 928.4000000000001 -74.27 L 928.4000000000001 -74.27&#10;                L 990.29 -25.27&#10;                L 1114.0800000000002 -74.27  V 742.72 H 0 V -74.27 Z" fill="#F95164"/><path d="M 0 0 L 0 0.00&#10;                L 77.00 45.00&#10;                L 185.68 0.00 L 185.68 0.00&#10;                L 267.68 54.00&#10;                L 371.36 0.00 L 371.36 0.00&#10;                L 460.36 70.00&#10;                L 557.04 0.00 L 557.04 0.00&#10;                L 666.04 37.14&#10;                L 742.72 0.00 L 742.72 0.00&#10;                L 877.72 37.14&#10;                L 928.4000000000001 0.00 L 928.4000000000001 0.00&#10;                L 1035.40 37.14&#10;                L 1114.0800000000002 0.00  V 742.72 H 0 V 0.00 Z" fill="#e24c61"/><path d="M 0 74.272 L 0 74.27&#10;                L 68.00 131.27&#10;                L 185.68 74.27 L 185.68 74.27&#10;                L 247.57 111.41&#10;                L 371.36 74.27 L 371.36 74.27&#10;                L 487.36 111.41&#10;                L 557.04 74.27 L 557.04 74.27&#10;                L 649.04 111.41&#10;                L 742.72 74.27 L 742.72 74.27&#10;                L 860.72 115.27&#10;                L 928.4000000000001 74.27 L 928.4000000000001 74.27&#10;                L 1059.40 111.41&#10;                L 1114.0800000000002 74.27  V 742.72 H 0 V 74.27 Z" fill="#cb475e"/><path d="M 0 148.544 L 0 148.54&#10;                L 87.00 185.68&#10;                L 185.68 148.54 L 185.68 148.54&#10;                L 247.57 185.68&#10;                L 371.36 148.54 L 371.36 148.54&#10;                L 445.36 195.54&#10;                L 557.04 148.54 L 557.04 148.54&#10;                L 678.04 206.54&#10;                L 742.72 148.54 L 742.72 148.54&#10;                L 804.61 185.68&#10;                L 928.4000000000001 148.54 L 928.4000000000001 148.54&#10;                L 1066.40 185.68&#10;                L 1114.0800000000002 148.54  V 742.72 H 0 V 148.54 Z" fill="#b4425b"/><path d="M 0 222.81600000000003 L 0 222.82&#10;                L 65.00 266.82&#10;                L 185.68 222.82 L 185.68 222.82&#10;                L 276.68 273.82&#10;                L 371.36 222.82 L 371.36 222.82&#10;                L 433.25 274.82&#10;                L 557.04 222.82 L 557.04 222.82&#10;                L 667.04 259.95&#10;                L 742.72 222.82 L 742.72 222.82&#10;                L 804.61 275.82&#10;                L 928.4000000000001 222.82 L 928.4000000000001 222.82&#10;                L 1054.40 286.82&#10;                L 1114.0800000000002 222.82  V 742.72 H 0 V 222.82 Z" fill="#9d3d58"/><path d="M 0 297.088 L 0 297.09&#10;                L 61.89 354.09&#10;                L 185.68 297.09 L 185.68 297.09&#10;                L 247.57 334.22&#10;                L 371.36 297.09 L 371.36 297.09&#10;                L 484.36 334.22&#10;                L 557.04 297.09 L 557.04 297.09&#10;                L 618.93 334.22&#10;                L 742.72 297.09 L 742.72 297.09&#10;                L 824.72 353.09&#10;                L 928.4000000000001 297.09 L 928.4000000000001 297.09&#10;                L 990.29 334.22&#10;                L 1114.0800000000002 297.09  V 742.72 H 0 V 297.09 Z" fill="#863855"/><path d="M 0 371.36 L 0 371.36&#10;                L 71.00 408.50&#10;                L 185.68 371.36 L 185.68 371.36&#10;                L 247.57 408.50&#10;                L 371.36 371.36 L 371.36 371.36&#10;                L 433.25 408.50&#10;                L 557.04 371.36 L 557.04 371.36&#10;                L 650.04 408.50&#10;                L 742.72 371.36 L 742.72 371.36&#10;                L 822.72 408.50&#10;                L 928.4000000000001 371.36 L 928.4000000000001 371.36&#10;                L 1043.40 408.50&#10;                L 1114.0800000000002 371.36  V 742.72 H 0 V 371.36 Z" fill="#6f3352"/><path d="M 0 445.63200000000006 L 0 445.63&#10;                L 61.89 508.63&#10;                L 185.68 445.63 L 185.68 445.63&#10;                L 321.68 508.63&#10;                L 371.36 445.63 L 371.36 445.63&#10;                L 493.36 484.63&#10;                L 557.04 445.63 L 557.04 445.63&#10;                L 642.04 494.63&#10;                L 742.72 445.63 L 742.72 445.63&#10;                L 870.72 482.77&#10;                L 928.4000000000001 445.63 L 928.4000000000001 445.63&#10;                L 1010.40 482.77&#10;                L 1114.0800000000002 445.63  V 742.72 H 0 V 445.63 Z" fill="#582e4f"/><path d="M 0 519.904 L 0 519.90&#10;                L 77.00 566.90&#10;                L 185.68 519.90 L 185.68 519.90&#10;                L 304.68 582.90&#10;                L 371.36 519.90 L 371.36 519.90&#10;                L 500.36 557.04&#10;                L 557.04 519.90 L 557.04 519.90&#10;                L 618.93 590.90&#10;                L 742.72 519.90 L 742.72 519.90&#10;                L 804.61 557.04&#10;                L 928.4000000000001 519.90 L 928.4000000000001 519.90&#10;                L 1020.40 557.04&#10;                L 1114.0800000000002 519.90  V 742.72 H 0 V 519.90 Z" fill="#41294c"/><path d="M 0 594.176 L 0 594.18&#10;                L 106.00 631.31&#10;                L 185.68 594.18 L 185.68 594.18&#10;                L 250.68 631.31&#10;                L 371.36 594.18 L 371.36 594.18&#10;                L 433.25 642.18&#10;                L 557.04 594.18 L 557.04 594.18&#10;                L 618.93 631.31&#10;                L 742.72 594.18 L 742.72 594.18&#10;                L 804.61 666.18&#10;                L 928.4000000000001 594.18 L 928.4000000000001 594.18&#10;                L 990.29 651.18&#10;                L 1114.0800000000002 594.18  V 742.72 H 0 V 594.18 Z" fill="#2a2449"/><path d="M 0 668.4480000000001 L 0 668.45&#10;                L 92.00 705.58&#10;                L 185.68 668.45 L 185.68 668.45&#10;                L 247.57 705.58&#10;                L 371.36 668.45 L 371.36 668.45&#10;                L 471.36 705.58&#10;                L 557.04 668.45 L 557.04 668.45&#10;                L 618.93 735.45&#10;                L 742.72 668.45 L 742.72 668.45&#10;                L 829.72 722.45&#10;                L 928.4000000000001 668.45 L 928.4000000000001 668.45&#10;                L 1064.40 705.58&#10;                L 1114.0800000000002 668.45  V 742.72 H 0 V 668.45 Z" fill="#131f46"/></svg>